<?xml version="1.0" encoding="UTF-8" standalone="no"?>
<svg
   width="121.914"
   height="28.016001"
   viewBox="0 0 121.914 28.016001"
   fill="none"
   version="1.1"
   id="svg6"
   sodipodi:docname="599f9fd3b457b236a0690fae13672ae0.svg"
   xmlns:inkscape="http://www.inkscape.org/namespaces/inkscape"
   xmlns:sodipodi="http://sodipodi.sourceforge.net/DTD/sodipodi-0.dtd"
   xmlns="http://www.w3.org/2000/svg"
   xmlns:svg="http://www.w3.org/2000/svg">
  <defs
     id="defs10" />
  <sodipodi:namedview
     id="namedview8"
     pagecolor="#ffffff"
     bordercolor="#666666"
     borderopacity="1.0"
     inkscape:pageshadow="2"
     inkscape:pageopacity="0.0"
     inkscape:pagecheckerboard="0" />
  <path
     d="m 41.2,23 h 3.36 v -6.552 h 0.624 c 0.216,0.504 0.408,0.864 0.648,1.224 L 49.408,23 h 3.96 l -4.704,-6.864 c 2.544,-0.552 4.032,-2.184 4.032,-4.848 C 52.696,8 50.392,6.152 46.624,6.176 L 41.2,6.2 Z m 3.36,-9.576 v -4.2 h 1.872 c 1.824,0 2.856,0.744 2.856,2.088 0,1.368 -1.032,2.112 -2.856,2.112 z M 54.1788,23 h 3.24 v -6.84 c 0,-2.16 1.224,-3.096 2.592,-3.096 1.608,0 2.688,0.936 2.688,3.096 V 23 h 3.24 v -7.632 c 0,-3.144 -2.064,-5.136 -4.752,-5.136 -1.872,0 -3.096,0.672 -3.768,2.016 V 5.48 h -3.24 z m 14.2329,5.016 c 2.928,0 4.488,-1.704 5.544,-4.224 l 5.52,-13.272 h -3.84 l -2.424,7.128 c -0.216,0.6 -0.408,1.344 -0.528,1.992 -0.12,-0.648 -0.312,-1.392 -0.528,-1.992 l -2.424,-7.128 h -3.912 l 4.944,11.904 -0.168,0.528 c -0.36,1.104 -1.152,1.896 -2.4,1.896 -0.528,0 -0.984,-0.048 -1.464,-0.168 l -0.48,3.096 c 0.648,0.192 1.512,0.24 2.16,0.24 z M 85.1568,23 h 1.776 v -2.88 h -1.344 c -0.624,0 -1.008,-0.36 -1.008,-1.152 V 13.28 h 2.64 v -2.76 h -2.64 V 7.664 L 81.3408,8 v 2.52 h -1.752 v 2.76 h 1.752 v 5.856 c 0,2.712 1.344,3.864 3.816,3.864 z m 3.147,0 h 3.24 v -6.84 c 0,-2.16 1.224,-3.096 2.592,-3.096 1.608,0 2.688,0.936 2.688,3.096 V 23 h 3.2402 v -7.632 c 0,-3.144 -2.0642,-5.136 -4.7522,-5.136 -1.872,0 -3.096,0.672 -3.768,2.016 V 5.48 h -3.24 z m 13.5702,0 h 3.24 v -6.84 c 0,-2.16 1.224,-3.096 2.592,-3.096 1.608,0 2.688,0.936 2.688,3.096 V 23 h 3.24 v -6.84 c 0,-2.4 1.032,-3.096 2.544,-3.096 1.464,0 2.496,0.936 2.496,3.096 V 23 h 3.24 v -7.632 c 0,-3.144 -2.064,-5.136 -4.752,-5.136 -2.184,0 -3.384,0.84 -4.224,2.352 -0.816,-1.512 -2.304,-2.352 -4.056,-2.352 -1.92,0 -3.168,0.72 -3.816,2.112 V 10.52 h -3.192 z"
     fill="#121212"
     id="path2" />
  <path
     fill-rule="evenodd"
     clip-rule="evenodd"
     d="M 14.1497,14.7262 C 13.7657,22.0669 7.59189,27.9146 0,28 V 0 C 7.59189,0.08547 13.7657,5.9331 14.1497,13.2738 14.5287,6.02987 20.5459,0.2399 28,0.0064 V 27.9937 C 20.5459,27.7602 14.5287,21.9702 14.1497,14.7262 Z"
     fill="#ff6428"
     id="path4" />
</svg>
